<?xml version="1.0" encoding="UTF-8" standalone="no"?>
<!-- Created with Inkscape (http://www.inkscape.org/) -->

<svg
   width="26.108677mm"
   height="16.724173mm"
   viewBox="0 0 26.108677 16.724173"
   version="1.1"
   id="svg1"
   xml:space="preserve"
   xmlns="http://www.w3.org/2000/svg"
   xmlns:svg="http://www.w3.org/2000/svg"><defs
     id="defs1" /><g
     id="layer1"
     style="display:inline"
     transform="translate(-169.25058,-271.31449)"><g
       id="layer1-8"
       style="display:inline"
       transform="translate(110.33125,200.025)"><g
         id="g452"
         style="fill:#000000"
         transform="matrix(0.29982705,0,0,0.29982705,48.963403,75.591877)"><g
           id="g719-2"
           transform="translate(42.489242,1.2143415)"
           style="display:inline;fill:#000000"><path
             style="fill:#000000;stroke:none;stroke-width:1.57983;paint-order:stroke fill markers"
             id="path468-31"
             d="m 30.895918,2.8939114 -1.351083,-10.5909182 -10.590918,-1.3510829 10.590918,-1.3510833 1.351083,-10.590918 1.351083,10.590918 10.590918,1.3510827 -10.590918,1.3510836 z"
             transform="matrix(0.83738058,0,0,0.83738058,-25.155286,4.2453861)" /><path
             style="display:inline;fill:#000000;stroke:none;stroke-width:2.10644;paint-order:stroke fill markers"
             id="path468-3-1"
             d="m 30.895918,2.8939114 -1.351083,-10.5909182 -10.590918,-1.3510829 10.590918,-1.3510833 1.351083,-10.590918 1.351083,10.590918 10.590918,1.3510827 -10.590918,1.3510836 z"
             transform="matrix(0.44408811,0.44408811,-0.44408811,0.44408811,-17.022303,-13.033669)" /></g><g
           id="g719-1-0"
           transform="translate(46.797022,21.475216)"
           style="display:inline;fill:#000000"><path
             style="fill:#000000;stroke:none;stroke-width:1.57983;paint-order:stroke fill markers"
             id="path468-73-8"
             d="m 30.895918,2.8939114 -1.351083,-10.5909182 -10.590918,-1.3510829 10.590918,-1.3510833 1.351083,-10.590918 1.351083,10.590918 10.590918,1.3510827 -10.590918,1.3510836 z"
             transform="matrix(0.83738058,0,0,0.83738058,-7.105283,17.527464)" /><path
             style="display:inline;fill:#000000;stroke:none;stroke-width:2.10644;paint-order:stroke fill markers"
             id="path468-3-3-8"
             d="m 30.895918,2.8939114 -1.351083,-10.5909182 -10.590918,-1.3510829 10.590918,-1.3510833 1.351083,-10.590918 1.351083,10.590918 10.590918,1.3510827 -10.590918,1.3510836 z"
             transform="matrix(0.44408811,0.44408811,-0.44408811,0.44408811,1.0277,0.248409)" /></g><g
           id="g719-08-8"
           transform="translate(64.688657,-14.30033)"
           style="display:inline;fill:#000000"><path
             style="fill:#000000;stroke:none;stroke-width:1.57983;paint-order:stroke fill markers"
             id="path468-0-3"
             d="m 30.895918,2.8939114 -1.351083,-10.5909182 -10.590918,-1.3510829 10.590918,-1.3510833 1.351083,-10.590918 1.351083,10.590918 10.590918,1.3510827 -10.590918,1.3510836 z"
             transform="matrix(0.83738058,0,0,0.83738058,-7.105283,17.527464)" /><path
             style="display:inline;fill:#000000;stroke:none;stroke-width:2.10644;paint-order:stroke fill markers"
             id="path468-3-2-2"
             d="m 30.895918,2.8939114 -1.351083,-10.5909182 -10.590918,-1.3510829 10.590918,-1.3510833 1.351083,-10.590918 1.351083,10.590918 10.590918,1.3510827 -10.590918,1.3510836 z"
             transform="matrix(0.44408811,0.44408811,-0.44408811,0.44408811,1.0277,0.248409)" /></g><g
           id="g719-0-2"
           transform="translate(46.798953,-0.88546588)"
           style="display:inline;fill:#000000"><path
             style="fill:#000000;stroke:none;stroke-width:1.57983;paint-order:stroke fill markers"
             id="path468-5-7"
             d="m 30.895918,2.8939114 -1.351083,-10.5909182 -10.590918,-1.3510829 10.590918,-1.3510833 1.351083,-10.590918 1.351083,10.590918 10.590918,1.3510827 -10.590918,1.3510836 z"
             transform="matrix(0.83738058,0,0,0.83738058,-7.105283,17.527464)" /><path
             style="display:inline;fill:#000000;stroke:none;stroke-width:2.10644;paint-order:stroke fill markers"
             id="path468-3-4-1"
             d="m 30.895918,2.8939114 -1.351083,-10.5909182 -10.590918,-1.3510829 10.590918,-1.3510833 1.351083,-10.590918 1.351083,10.590918 10.590918,1.3510827 -10.590918,1.3510836 z"
             transform="matrix(0.44408811,0.44408811,-0.44408811,0.44408811,1.0277,0.248409)" /></g><g
           id="g719-06-3-7"
           transform="translate(91.518381,21.479077)"
           style="display:inline;fill:#000000"><path
             style="fill:#000000;stroke:none;stroke-width:1.57983;paint-order:stroke fill markers"
             id="path468-2-1-9"
             d="m 30.895918,2.8939114 -1.351083,-10.5909182 -10.590918,-1.3510829 10.590918,-1.3510833 1.351083,-10.590918 1.351083,10.590918 10.590918,1.3510827 -10.590918,1.3510836 z"
             transform="matrix(0.83738058,0,0,0.83738058,-7.105283,17.527464)" /><path
             style="display:inline;fill:#000000;stroke:none;stroke-width:2.10644;paint-order:stroke fill markers"
             id="path468-3-1-9-3"
             d="m 30.895918,2.8939114 -1.351083,-10.5909182 -10.590918,-1.3510829 10.590918,-1.3510833 1.351083,-10.590918 1.351083,10.590918 10.590918,1.3510827 -10.590918,1.3510836 z"
             transform="matrix(0.44408811,0.44408811,-0.44408811,0.44408811,1.0277,0.248409)" /></g></g></g></g></svg>
