<?xml version="1.0" encoding="UTF-8" standalone="no"?>
<!-- Created with Inkscape (http://www.inkscape.org/) -->

<svg
   width="210mm"
   height="297mm"
   viewBox="0 0 210 297"
   version="1.1"
   id="svg5"
   sodipodi:docname="Senerean flag.svg"
   inkscape:export-filename="..\website\favicon.png"
   inkscape:export-xdpi="100"
   inkscape:export-ydpi="100"
   inkscape:version="1.2 (dc2aedaf03, 2022-05-15)"
   xmlns:inkscape="http://www.inkscape.org/namespaces/inkscape"
   xmlns:sodipodi="http://sodipodi.sourceforge.net/DTD/sodipodi-0.dtd"
   xmlns="http://www.w3.org/2000/svg"
   xmlns:svg="http://www.w3.org/2000/svg">
  <sodipodi:namedview
     id="namedview7"
     pagecolor="#ffffff"
     bordercolor="#666666"
     borderopacity="1.0"
     inkscape:showpageshadow="2"
     inkscape:pageopacity="0.0"
     inkscape:pagecheckerboard="0"
     inkscape:deskcolor="#d1d1d1"
     inkscape:document-units="mm"
     showgrid="false"
     inkscape:zoom="0.50333193"
     inkscape:cx="37.74845"
     inkscape:cy="681.45885"
     inkscape:window-width="1366"
     inkscape:window-height="745"
     inkscape:window-x="-8"
     inkscape:window-y="-8"
     inkscape:window-maximized="1"
     inkscape:current-layer="layer2"
     showguides="false" />
  <defs
     id="defs2" />
  <g
     inkscape:label="Layer 1"
     inkscape:groupmode="layer"
     id="layer1">
    <rect
       style="font-variation-settings:'wght' 400;fill:#000080;stroke-width:3;fill-opacity:1"
       id="rect111"
       width="200"
       height="100"
       x="-2.264923e-16"
       y="0" />
    <path
       sodipodi:type="star"
       style="font-variation-settings:'wght' 400;fill:#ffffff;stroke-width:3.06684"
       id="path165"
       inkscape:flatsided="true"
       sodipodi:sides="3"
       sodipodi:cx="-116.17168"
       sodipodi:cy="29.962833"
       sodipodi:r1="63.422585"
       sodipodi:r2="31.71129"
       sodipodi:arg1="-1.0471976"
       sodipodi:arg2="0"
       inkscape:rounded="0"
       inkscape:randomized="0"
       d="m -84.460387,-24.962738 5e-6,109.851139 -95.133878,-54.925565 z"
       inkscape:transform-center-x="16.666659"
       transform="matrix(1.0511502,0,0,0.91032283,288.78055,22.72415)" />
    <path
       sodipodi:type="star"
       style="font-variation-settings:'wght' 400;fill:#00ff00;stroke-width:3.91977;fill-opacity:1"
       id="path273"
       inkscape:flatsided="true"
       sodipodi:sides="3"
       sodipodi:cx="-142.45486"
       sodipodi:cy="47.309738"
       sodipodi:r1="81.061363"
       sodipodi:r2="40.530685"
       sodipodi:arg1="-1.5707963"
       sodipodi:arg2="-0.52359878"
       inkscape:rounded="0"
       inkscape:randomized="0"
       d="m -142.45486,-33.751625 70.201194,121.592047 -140.402404,-4e-6 z"
       inkscape:transform-center-x="-4.1449519e-06"
       inkscape:transform-center-y="-8.3333336"
       transform="matrix(1.4244771,0,0,0.41121111,302.9237,63.879043)" />
    <path
       sodipodi:type="star"
       style="font-variation-settings:'wght' 400;fill:#ffffff;fill-opacity:1;stroke-width:12.4"
       id="path1116"
       inkscape:flatsided="false"
       sodipodi:sides="5"
       sodipodi:cx="-171.89203"
       sodipodi:cy="-7.359292"
       sodipodi:r1="9.778616"
       sodipodi:r2="32.595387"
       sodipodi:arg1="1.5707963"
       sodipodi:arg2="2.1991148"
       inkscape:rounded="0"
       inkscape:randomized="0"
       d="m -171.89203,2.4193239 -19.15908,16.5916071 9.85906,-23.3484643 -21.70003,-13.0942857 25.25232,2.161461 5.74773,-24.684321 5.74773,24.68432 25.25233,-2.161463 -21.70004,13.0942882 9.85907,23.3484618 z"
       transform="matrix(0.24193506,0,0,0.24193506,54.086709,12.166438)" />
    <path
       sodipodi:type="star"
       style="font-variation-settings:'wght' 400;fill:#ffffff;fill-opacity:1;stroke-width:12.4"
       id="path1116-8"
       inkscape:flatsided="false"
       sodipodi:sides="5"
       sodipodi:cx="-171.89203"
       sodipodi:cy="-7.359292"
       sodipodi:r1="9.778616"
       sodipodi:r2="32.595387"
       sodipodi:arg1="1.5707963"
       sodipodi:arg2="2.1991148"
       inkscape:rounded="0"
       inkscape:randomized="0"
       d="m -171.89203,2.4193239 -19.15908,16.5916071 9.85906,-23.3484643 -21.70003,-13.0942857 25.25232,2.161461 5.74773,-24.684321 5.74773,24.68432 25.25233,-2.161463 -21.70004,13.0942882 9.85907,23.3484618 z"
       transform="matrix(0.24193506,0,0,0.24193506,76.970041,47.166438)" />
    <path
       sodipodi:type="star"
       style="font-variation-settings:'wght' 400;fill:#ffffff;fill-opacity:1;stroke-width:12.4"
       id="path1116-8-4"
       inkscape:flatsided="false"
       sodipodi:sides="5"
       sodipodi:cx="-171.89203"
       sodipodi:cy="-7.359292"
       sodipodi:r1="9.778616"
       sodipodi:r2="32.595387"
       sodipodi:arg1="1.5707963"
       sodipodi:arg2="2.1991148"
       inkscape:rounded="0"
       inkscape:randomized="0"
       d="m -171.89203,2.4193239 -19.15908,16.5916071 9.85906,-23.3484643 -21.70003,-13.0942857 25.25232,2.161461 5.74773,-24.684321 5.74773,24.68432 25.25233,-2.161463 -21.70004,13.0942882 9.85907,23.3484618 z"
       transform="matrix(0.24193506,0,0,0.24193506,129.08671,49.666438)" />
    <path
       sodipodi:type="star"
       style="font-variation-settings:'wght' 400;fill:#ffffff;fill-opacity:1;stroke-width:12.4"
       id="path1116-8-4-8"
       inkscape:flatsided="false"
       sodipodi:sides="5"
       sodipodi:cx="-171.89203"
       sodipodi:cy="-7.359292"
       sodipodi:r1="9.778616"
       sodipodi:r2="32.595387"
       sodipodi:arg1="1.5707963"
       sodipodi:arg2="2.1991148"
       inkscape:rounded="0"
       inkscape:randomized="0"
       d="m -171.89203,2.4193239 -19.15908,16.5916071 9.85906,-23.3484643 -21.70003,-13.0942857 25.25232,2.161461 5.74773,-24.684321 5.74773,24.68432 25.25233,-2.161463 -21.70004,13.0942882 9.85907,23.3484618 z"
       transform="matrix(0.24193506,0,0,0.24193506,84.086709,24.666438)" />
    <path
       sodipodi:type="star"
       style="font-variation-settings:'wght' 400;fill:#ffffff;fill-opacity:1;stroke-width:12.4"
       id="path1116-8-1"
       inkscape:flatsided="false"
       sodipodi:sides="5"
       sodipodi:cx="-171.89203"
       sodipodi:cy="-7.359292"
       sodipodi:r1="9.778616"
       sodipodi:r2="32.595387"
       sodipodi:arg1="1.5707963"
       sodipodi:arg2="2.1991148"
       inkscape:rounded="0"
       inkscape:randomized="0"
       d="m -171.89203,2.4193239 -19.15908,16.5916071 9.85906,-23.3484643 -21.70003,-13.0942857 25.25232,2.161461 5.74773,-24.684321 5.74773,24.68432 25.25233,-2.161463 -21.70004,13.0942882 9.85907,23.3484618 z"
       transform="matrix(0.24193506,0,0,0.24193506,101.49505,10.04977)" />
  </g>
  <g
     inkscape:groupmode="layer"
     id="layer2"
     inkscape:label="Layer 2">
    <rect
       style="font-variation-settings:'wght' 400;display:inline;fill:#000080;fill-opacity:1;stroke-width:2.99999"
       id="rect953"
       width="100"
       height="100"
       x="0"
       y="150" />
    <path
       sodipodi:type="star"
       style="font-variation-settings:'wght' 400;display:inline;fill:#ffffff;stroke-width:3.06684"
       id="path165-6"
       inkscape:flatsided="true"
       sodipodi:sides="3"
       sodipodi:cx="-116.17168"
       sodipodi:cy="29.962833"
       sodipodi:r1="63.422585"
       sodipodi:r2="31.71129"
       sodipodi:arg1="-1.0471976"
       sodipodi:arg2="0"
       inkscape:rounded="0"
       inkscape:randomized="0"
       d="m -84.460387,-24.962738 5e-6,109.851139 -95.133878,-54.925565 z"
       inkscape:transform-center-x="16.666663"
       transform="matrix(1.0511502,0,0,0.91032285,188.78054,222.72415)"
       inkscape:transform-center-y="1.4490326e-05" />
    <path
       sodipodi:type="star"
       style="font-variation-settings:'wght' 400;display:inline;fill:#00ff00;fill-opacity:1;stroke-width:3.91977"
       id="path273-7"
       inkscape:flatsided="true"
       sodipodi:sides="3"
       sodipodi:cx="-142.45486"
       sodipodi:cy="47.309738"
       sodipodi:r1="81.061363"
       sodipodi:r2="40.530685"
       sodipodi:arg1="-1.5707963"
       sodipodi:arg2="-0.52359878"
       inkscape:rounded="0"
       inkscape:randomized="0"
       d="m -142.45486,-33.751625 70.201194,121.592047 -140.402404,-4e-6 z"
       inkscape:transform-center-x="-5.5935951e-06"
       inkscape:transform-center-y="-8.3333336"
       transform="matrix(1.4244771,0,0,0.4112111,202.9237,213.87904)" />
    <path
       sodipodi:type="star"
       style="font-variation-settings:'wght' 400;display:inline;fill:#ffffff;fill-opacity:1;stroke:none;stroke-width:4.13334;stroke-dasharray:none;stroke-opacity:1"
       id="path1116-80"
       inkscape:flatsided="false"
       sodipodi:sides="5"
       sodipodi:cx="-171.89203"
       sodipodi:cy="-7.359292"
       sodipodi:r1="9.778616"
       sodipodi:r2="32.595387"
       sodipodi:arg1="1.5707963"
       sodipodi:arg2="2.1991148"
       inkscape:rounded="0"
       inkscape:randomized="0"
       d="m -171.89203,2.4193239 -19.15908,16.5916071 9.85906,-23.3484643 -21.70003,-13.0942857 25.25232,2.161461 5.74773,-24.684321 5.74773,24.68432 25.25233,-2.161463 -21.70004,13.0942882 9.85907,23.3484618 z"
       transform="matrix(0.24193506,0,0,0.24193506,51.915101,162.51618)" />
    <path
       sodipodi:type="star"
       style="font-variation-settings:'wght' 400;fill:#ffffff;fill-opacity:1;stroke:none;stroke-width:4.13334;stroke-dasharray:none;stroke-opacity:1"
       id="path1116-8-2"
       inkscape:flatsided="false"
       sodipodi:sides="5"
       sodipodi:cx="-171.89203"
       sodipodi:cy="-7.359292"
       sodipodi:r1="9.778616"
       sodipodi:r2="32.595387"
       sodipodi:arg1="1.5707963"
       sodipodi:arg2="2.1991148"
       inkscape:rounded="0"
       inkscape:randomized="0"
       d="m -171.89203,2.4193239 -19.15908,16.5916071 9.85906,-23.3484643 -21.70003,-13.0942857 25.25232,2.161461 5.74773,-24.684321 5.74773,24.68432 25.25233,-2.161463 -21.70004,13.0942882 9.85907,23.3484618 z"
       transform="matrix(0.24193506,0,0,0.24193506,74.798433,197.51618)" />
    <path
       sodipodi:type="star"
       style="font-variation-settings:'wght' 400;fill:#ffffff;fill-opacity:1;stroke:none;stroke-width:4.13334;stroke-dasharray:none;stroke-opacity:1"
       id="path1116-8-4-0"
       inkscape:flatsided="false"
       sodipodi:sides="5"
       sodipodi:cx="-171.89203"
       sodipodi:cy="-7.359292"
       sodipodi:r1="9.778616"
       sodipodi:r2="32.595387"
       sodipodi:arg1="1.5707963"
       sodipodi:arg2="2.1991148"
       inkscape:rounded="0"
       inkscape:randomized="0"
       d="m -171.89203,2.4193239 -19.15908,16.5916071 9.85906,-23.3484643 -21.70003,-13.0942857 25.25232,2.161461 5.74773,-24.684321 5.74773,24.68432 25.25233,-2.161463 -21.70004,13.0942882 9.85907,23.3484618 z"
       transform="matrix(0.24193506,0,0,0.24193506,126.91509,200.01618)" />
    <path
       sodipodi:type="star"
       style="font-variation-settings:'wght' 400;fill:#ffffff;fill-opacity:1;stroke:none;stroke-width:4.13334;stroke-dasharray:none;stroke-opacity:1"
       id="path1116-8-4-8-3"
       inkscape:flatsided="false"
       sodipodi:sides="5"
       sodipodi:cx="-171.89203"
       sodipodi:cy="-7.359292"
       sodipodi:r1="9.778616"
       sodipodi:r2="32.595387"
       sodipodi:arg1="1.5707963"
       sodipodi:arg2="2.1991148"
       inkscape:rounded="0"
       inkscape:randomized="0"
       d="m -171.89203,2.4193239 -19.15908,16.5916071 9.85906,-23.3484643 -21.70003,-13.0942857 25.25232,2.161461 5.74773,-24.684321 5.74773,24.68432 25.25233,-2.161463 -21.70004,13.0942882 9.85907,23.3484618 z"
       transform="matrix(0.24193506,0,0,0.24193506,81.9151,175.01618)" />
    <path
       sodipodi:type="star"
       style="font-variation-settings:'wght' 400;fill:#ffffff;fill-opacity:1;stroke:none;stroke-width:4.13334;stroke-dasharray:none;stroke-opacity:1"
       id="path1116-8-1-1"
       inkscape:flatsided="false"
       sodipodi:sides="5"
       sodipodi:cx="-171.89203"
       sodipodi:cy="-7.359292"
       sodipodi:r1="9.778616"
       sodipodi:r2="32.595387"
       sodipodi:arg1="1.5707963"
       sodipodi:arg2="2.1991148"
       inkscape:rounded="0"
       inkscape:randomized="0"
       d="m -171.89203,2.4193239 -19.15908,16.5916071 9.85906,-23.3484643 -21.70003,-13.0942857 25.25232,2.161461 5.74773,-24.684321 5.74773,24.68432 25.25233,-2.161463 -21.70004,13.0942882 9.85907,23.3484618 z"
       transform="matrix(0.24193506,0,0,0.24193506,99.323436,160.39951)" />
  </g>
</svg>
